:SAMPLES-PER-SECOND 30
:FULLY-SPECIFIED
:DEGREES
251
root  -0.658349 37.4803 -1.13096 -21.4383 -87.7373 18.8773
RightUpLeg  -14.4936 -22.9065 -14.7175
RightLeg  39.7721 -14.3476 -12.6164
RightFoot  -4.8625 -0.630431 10.7442
RightToes  -1.33073e-015 0 -3.6325e-017
Spine  22.3818 0.718477 0.582896
Spine1  -13.2191 0.808554 -0.344606
HEad  -10.3012 1.78527 -0.145064
LeftShoulder1  0.019509 4.99227 9.88692
LeftArm  -62.4123 -14.3223 -24.2822
LeftForeArm  28.1564 -77.6679 -73.7215
LeftHand  0.133429 5.75174 37.5856
RightShoulder  -0.0274455 -4.09653 -3.21933
RightArm  -68.3438 0.229224 10.6876
RightForeArm  -19.4692 69.1163 34.7087
RightHand  -2.34394 2.24851 -34.8261
LeftUpLeg  -17.767 18.7405 10.2667
LeftLeg  35.4057 1.0142 1.12379
LeftFoot  -10.1484 0.204325 -13.8512
LeftToes  -4.0021e-011 8.38769e-011 -3.99229e-011
252
root  -1.20387 38.8786 -0.740964 3.28992 -87.2155 -4.24731
RightUpLeg  -11.7423 -20.6566 -11.7686
RightLeg  32.3656 -23.7083 -15.5665
RightFoot  -1.67435 -0.499237 5.57005
RightToes  -1.33073e-015 0 -3.6325e-017
Spine  19.7913 -0.22537 1.83979
Spine1  -16.2382 0.0263323 -0.214163
HEad  -2.78553 3.01782 -0.358605
LeftShoulder1  0.137807 2.20775 -2.42958
LeftArm  -52.3455 -7.14119 -24.8884
LeftForeArm  61.1607 -77.9834 -102.616
LeftHand  -0.0417025 5.227 35.9357
RightShoulder  0.14529 -2.38734 5.0556
RightArm  -61.2597 -3.98181 17.0832
RightForeArm  7.63731 75.8004 56.5973
RightHand  -2.42146 2.60819 -34.3855
LeftUpLeg  -13.1741 16.3915 9.76051
LeftLeg  24.0932 3.94921 2.24955
LeftFoot  -5.02814 0.772718 -13.3897
LeftToes  -4.0021e-011 8.38769e-011 -3.99229e-011
253
root  -1.64643 39.8935 -0.378237 24.5884 -87.1702 -24.0709
RightUpLeg  -10.9284 -20.2293 -8.22247
RightLeg  28.1939 -30.2933 -16.5793
RightFoot  -2.86822 -0.247452 3.10558
RightToes  -1.33073e-015 0 -3.6325e-017
Spine  17.2783 -0.393557 2.83344
Spine1  -17.3795 -0.08969 0.547125
HEad  0.85312 3.95717 -1.23435
LeftShoulder1  0.691344 0.169656 -13.9291
LeftArm  -46.243 1.8853 -23.6246
LeftForeArm  72.1489 -77.3212 -112.432
LeftHand  -0.261148 4.51219 34.7679
RightShoulder  0.521136 -0.933059 13.5108
RightArm  -57.2799 -9.72621 19.9661
RightForeArm  26.4352 77.5067 72.3226
RightHand  -2.38066 2.46037 -34.442
LeftUpLeg  -8.95308 14.2507 9.88187
LeftLeg  13.9473 7.44259 2.0093
LeftFoot  -0.315794 1.28803 -13.2784
LeftToes  -4.0021e-011 8.38769e-011 -3.99229e-011
254
root  -1.84792 40.3147 -0.0556182 55.5578 -88.0416 -54.0363
RightUpLeg  -12.7595 -22.321 -4.9093
RightLeg  28.4275 -28.4943 -15.7764
RightFoot  -6.72295 -0.250808 5.38314
RightToes  -1.33073e-015 0 -3.6325e-017
Spine  16.0973 0.35887 2.8042
Spine1  -17.3268 0.607366 1.07594
HEad  0.636679 4.17722 -1.87212
LeftShoulder1  1.21319 -1.11759 -20.01
LeftArm  -44.0796 9.72085 -24.6277
LeftForeArm  74.4342 -76.9325 -115.868
LeftHand  -0.536444 3.58566 34.1001
RightShoulder  0.875267 0.0118816 18.6424
RightArm  -57.4882 -15.737 22.7401
RightForeArm  37.9789 77.9821 85.26
RightHand  -2.26282 2.08298 -34.3886
LeftUpLeg  -6.52318 12.0843 9.9994
LeftLeg  8.3889 11.7024 1.16105
LeftFoot  2.13927 1.54244 -13.1143
LeftToes  -4.0021e-011 8.38769e-011 -3.99229e-011
255
root  -1.72577 40.1249 0.183952 78.748 -89.4187 -76.5248
RightUpLeg  -16.8988 -24.9768 -2.36064
RightLeg  32.9991 -21.0713 -14.2588
RightFoot  -10.4332 -0.149182 9.27318
RightToes  -1.33073e-015 0 -3.6325e-017
Spine  16.7573 1.18135 1.06181
Spine1  -17.0102 1.24309 1.48153
HEad  -2.06838 4.22698 -1.91975
LeftShoulder1  1.12504 -0.891377 -18.9266
LeftArm  -44.557 13.904 -28.8486
LeftForeArm  77.5994 -76.2289 -120.923
LeftHand  -0.658069 3.1718 33.9714
RightShoulder  0.902531 0.163275 18.1596
RightArm  -60.2844 -19.4991 27.3386
RightForeArm  46.3508 77.7806 98.1271
RightHand  -2.3012 2.40236 -33.5984
LeftUpLeg  -8.11806 14.5546 8.79015
LeftLeg  10.5612 11.1161 0.949691
LeftFoot  0.554507 1.34152 -12.8648
LeftToes  -4.0021e-011 8.38769e-011 -3.99229e-011
256
root  -1.35646 39.3669 0.358564 -128.951 -89.1783 131.116
RightUpLeg  -21.8444 -27.2612 -0.541593
RightLeg  41.1533 -14.1385 -13.1514
RightFoot  -12.5005 0.0237628 11.1226
RightToes  -1.33073e-015 0 -3.6325e-017
Spine  18.9096 1.32887 -1.45909
Spine1  -16.1909 1.06178 2.38645
HEad  -5.93705 4.56834 -1.82852
LeftShoulder1  0.486306 1.19342 -13.8257
LeftArm  -46.3383 12.5914 -31.5557
LeftForeArm  82.2163 -75.0269 -127.781
LeftHand  -0.520202 3.61398 33.5902
RightShoulder  0.595734 -0.671312 14.1669
RightArm  -63.6729 -19.0468 30.3414
RightForeArm  49.7014 77.3241 105.984
RightHand  -2.31244 2.69883 -32.5775
LeftUpLeg  -13.4587 22.3844 6.47221
LeftLeg  20.1363 3.23083 1.14703
LeftFoot  -4.78487 0.764256 -12.8351
LeftToes  -4.0021e-011 8.38769e-011 -3.99229e-011
257
root  -0.906034 38.0447 0.557347 -61.0534 -88.2939 61.7261
RightUpLeg  -25.9167 -29.3779 0.595847
RightLeg  51.3342 -10.14 -13.6947
RightFoot  -13.2862 0.0957388 10.9569
RightToes  -1.33073e-015 0 -3.6325e-017
Spine  22.4244 0.889451 -2.80815
Spine1  -15.3752 0.312383 3.1099
HEad  -9.08769 4.66724 -1.91408
LeftShoulder1  -0.0574126 3.8585 -8.31529
LeftArm  -49.0296 6.09632 -28.0422
LeftForeArm  79.951 -74.9434 -127.813
LeftHand  -0.362311 4.09914 32.4067
RightShoulder  0.194072 -2.33851 9.30809
RightArm  -66.7962 -14.6784 27.7781
RightForeArm  43.5458 77.4839 101.843
RightHand  -2.17122 2.3597 -31.9664
LeftUpLeg  -19.4707 24.1814 5.46455
LeftLeg  33.5467 -0.604616 0.0297674
LeftFoot  -11.2752 0.0774953 -12.6228
LeftToes  -4.0021e-011 8.38769e-011 -3.99229e-011
258
root  -0.469242 36.2263 0.812663 -46.0627 -86.8318 44.7567
RightUpLeg  -29.1717 -30.3993 0.792814
RightLeg  61.2003 -8.15601 -16.1879
RightFoot  -15.3532 0.263506 10.518
RightToes  -1.33073e-015 0 -3.6325e-017
Spine  26.863 0.415999 -2.9435
Spine1  -16.39 -0.260534 2.52873
HEad  -10.146 3.86356 -1.87918
LeftShoulder1  -0.213949 5.66907 -1.44074
LeftArm  -53.4772 -2.29621 -20.6215
LeftForeArm  62.1834 -77.0621 -111.384
LeftHand  -0.372888 4.01987 31.3922
RightShoulder  -0.0942427 -4.35179 3.28444
RightArm  -70.0694 -9.44079 20.753
RightForeArm  24.0181 77.6254 81.9899
RightHand  -2.11177 2.27217 -31.4757
LeftUpLeg  -25.1994 23.1967 4.93094
LeftLeg  47.3503 -1.477 -1.23071
LeftFoot  -17.0828 -0.4704 -11.4484
LeftToes  -4.0021e-011 8.38769e-011 -3.99229e-011
259
root  -0.0276209 34.1598 1.07573 -52.5258 -85.0578 50.9659
RightUpLeg  -33.6905 -29.5082 0.466213
RightLeg  69.38 -6.8278 -20.126
RightFoot  -21.4925 0.789034 10.4737
RightToes  -1.33073e-015 0 -3.6325e-017
Spine  30.6987 0.359853 -3.53543
Spine1  -18.9112 -0.44135 1.24898
HEad  -11.1296 2.48368 -1.80847
LeftShoulder1  -0.0491127 6.86771 7.91601
LeftArm  -60.0823 -9.03672 -13.3588
LeftForeArm  20.0359 -77.0577 -70.2199
LeftHand  -0.445062 3.78359 31.8157
RightShoulder  -0.131909 -6.20922 -4.06541
RightArm  -73.735 -5.94709 12.0161
RightForeArm  -5.21101 74.6979 53.2745
RightHand  -2.14288 2.5362 -30.906
LeftUpLeg  -32.1979 22.7088 2.47723
LeftLeg  59.3821 -1.17541 -1.52975
LeftFoot  -21.8237 -0.760853 -9.69571
LeftToes  -4.0021e-011 8.38769e-011 -3.99229e-011
260
root  0.41678 32.166 1.31545 -63.3452 -83.1641 63.3369
RightUpLeg  -39.9778 -27.3579 -0.0687435
RightLeg  76.4156 -5.16096 -24.7443
RightFoot  -29.5945 1.57851 11.0292
RightToes  -1.33073e-015 0 -3.6325e-017
Spine  32.9663 0.641955 -4.94725
Spine1  -19.8034 -0.508341 0.186231
HEad  -15.8871 1.33264 -2.14723
LeftShoulder1  0.327105 8.4923 17.0367
LeftArm  -68.8089 -12.2229 -6.49374
LeftForeArm  -18.0323 -69.2588 -35.0584
LeftHand  -0.364727 4.12825 33.5093
RightShoulder  0.0285043 -7.74563 -10.3792
RightArm  -77.8422 -4.4971 2.40711
RightForeArm  -30.5962 66.5168 30.7825
RightHand  -2.16938 2.56108 -31.1767
LeftUpLeg  -40.1478 23.2743 -1.59002
LeftLeg  69.0585 -0.756258 -1.34228
LeftFoot  -25.673 -0.907629 -8.4146
LeftToes  -4.0021e-011 8.38769e-011 -3.99229e-011
261
root  0.758891 30.6515 1.50646 -72.634 -81.6489 73.3096
RightUpLeg  -44.9052 -25.2974 -1.14225
RightLeg  82.4001 -2.77024 -28.1949
RightFoot  -34.126 2.19488 12.0342
RightToes  -1.33073e-015 0 -3.6325e-017
Spine  34.1891 0.785192 -5.9237
Spine1  -17.4038 -0.618121 -1.10535
HEad  -23.7817 0.716982 -2.62141
LeftShoulder1  0.825211 10.4047 23.2837
LeftArm  -77.4886 -11.3089 -1.04443
LeftForeArm  -35.5863 -59.673 -21.9497
LeftHand  0.0330788 5.45835 35.5434
RightShoulder  0.210814 -8.92573 -14.0545
RightArm  -81.42 -5.42461 -5.31712
RightForeArm  -44.0268 56.8399 19.9999
RightHand  -2.21142 2.35116 -32.5565
LeftUpLeg  -45.3449 24.3069 -4.67895
LeftLeg  75.8128 -0.574151 -1.32057
LeftFoot  -28.32 -1.01511 -7.92414
LeftToes  -4.0021e-011 8.38769e-011 -3.99229e-011
262
root  0.86406 29.9639 1.59184 -80.131 -80.9733 79.2065
RightUpLeg  -45.4578 -23.8268 -2.53538
RightLeg  85.7921 -0.980005 -29.3215
RightFoot  -34.1641 2.33245 12.6726
RightToes  -1.33073e-015 0 -3.6325e-017
Spine  34.947 0.604845 -5.8361
Spine1  -13.8858 -0.699842 -2.88203
HEad  -28.5144 0.691315 -2.63177
LeftShoulder1  1.14009 11.238 26.3724
LeftArm  -82.8673 -8.96701 -1.07294
LeftForeArm  -38.9573 -57.7674 -20.6839
LeftHand  0.494736 6.82225 37.746
RightShoulder  0.284465 -9.10409 -15.3667
RightArm  -82.5668 -7.86575 -6.47422
RightForeArm  -45.5773 54.0653 18.2231
RightHand  -2.29326 2.28795 -33.9497
LeftUpLeg  -45.2758 25.2967 -5.03671
LeftLeg  78.9082 -0.483811 -1.25031
LeftFoot  -29.4861 -1.07814 -7.85177
LeftToes  -4.0021e-011 8.38769e-011 -3.99229e-011
263
root  0.658114 30.2077 1.52946 -84.605 -81.1549 81.6551
RightUpLeg  -42.2576 -22.7256 -3.48449
RightLeg  85.1397 -1.34203 -29.2211
RightFoot  -32.9063 2.22687 12.8306
RightToes  -1.33073e-015 0 -3.6325e-017
Spine  34.6858 0.44888 -5.53782
Spine1  -12.4486 -0.70872 -3.67278
HEad  -25.5427 1.28333 -2.35702
LeftShoulder1  1.02424 10.7132 25.7308
LeftArm  -82.77 -9.49853 -7.67785
LeftForeArm  -27.2609 -65.8448 -30.0472
LeftHand  0.701986 7.28171 40.334
RightShoulder  0.197496 -8.23767 -14.2838
RightArm  -80.6358 -8.7433 -0.472074
RightForeArm  -37.3776 60.8065 23.8723
RightHand  -2.39585 2.56239 -34.2327
LeftUpLeg  -41.7485 26.0082 -3.41569
LeftLeg  78.0654 -0.527678 -1.38167
LeftFoot  -29.2192 -1.0792 -7.96662
LeftToes  -4.0021e-011 8.38769e-011 -3.99229e-011
264
root  0.179133 31.2884 1.3323 -84.3118 -82.1627 80.827
RightUpLeg  -37.9791 -22.5301 -3.29896
RightLeg  81.0746 -3.47256 -28.2103
RightFoot  -30.7333 2.04231 13.1225
RightToes  -1.33073e-015 0 -3.6325e-017
Spine  32.6528 0.430689 -5.42109
Spine1  -13.3206 -0.74084 -2.49601
HEad  -17.5832 2.14466 -2.30815
LeftShoulder1  0.543193 9.28635 20.2325
LeftArm  -75.32 -11.9176 -17.437
LeftForeArm  7.45319 -75.9956 -59.6914
LeftHand  0.782046 7.39812 42.0574
RightShoulder  0.0187656 -6.98173 -10.1307
RightArm  -75.248 -7.4055 8.66714
RightForeArm  -19.5545 70.7188 38.7953
RightHand  -2.37683 2.66466 -33.5675
LeftUpLeg  -37.4284 26.4054 -1.02941
LeftLeg  73.5073 -0.89679 -2.28601
LeftFoot  -27.5002 -1.04437 -8.5142
LeftToes  -4.0021e-011 8.38769e-011 -3.99229e-011
